<svg xmlns="http://www.w3.org/2000/svg" viewBox="0 0 200 200" width="200" height="200" role="img" aria-label="Cliente 2">
  <defs>
    <radialGradient id="bg2" cx="50%" cy="35%" r="75%"><stop offset="0" stop-color="#3a3118"/><stop offset="1" stop-color="#121212"/></radialGradient>
    <clipPath id="c2"><circle cx="100" cy="100" r="100"/></clipPath>
  </defs>
  <g clip-path="url(#c2)">
    <rect width="200" height="200" fill="url(#bg2)"/>
    <path d="M18 210c4-44 38-62 82-62s78 18 82 62z" fill="#3a2f12"/>
    <path d="M78 150l22 26 22-26" fill="none" stroke="#c9a227" stroke-width="3" stroke-linejoin="round"/>
    <rect x="86" y="128" width="28" height="30" rx="10" fill="#74462b"/>
    <path d="M50 96c-4-46 20-66 50-66s54 20 50 66c-6-26-22-38-50-38S56 70 50 96z" fill="#0e0b09"/>
    <ellipse cx="52" cy="106" rx="8" ry="12" fill="#74462b"/><ellipse cx="148" cy="106" rx="8" ry="12" fill="#74462b"/>
    <path d="M54 92c0-32 20-50 46-50s46 18 46 50v22c0 28-20 48-46 48s-46-20-46-48z" fill="#8d5a3b"/>
    <path d="M58 112c2 34 20 52 42 52s40-18 42-52c-6 12-14 18-24 20-6-6-12-8-18-8s-12 2-18 8c-10-2-18-8-24-20z" fill="#0e0b09"/><path d="M86 138q14 8 28 0" stroke="#fff" stroke-opacity=".0" fill="none"/>
    <path d="M56 88c4-20 22-32 44-32s40 12 44 32c-8-14-24-22-44-22S64 74 56 88z" fill="#0e0b09"/>
    <path d="M72 92q9-6 18 0M110 92q9-6 18 0" stroke="#0e0b09" stroke-width="4" stroke-linecap="round" fill="none"/>
    <ellipse cx="81" cy="104" rx="5" ry="5.5" fill="#1a1210"/><ellipse cx="119" cy="104" rx="5" ry="5.5" fill="#1a1210"/>
    <circle cx="83" cy="102" r="1.6" fill="#fff"/><circle cx="121" cy="102" r="1.6" fill="#fff"/>
    <path d="M100 108c-3 8-6 14-2 18 3 2 7 2 10 0" stroke="#74462b" stroke-width="3" fill="none" stroke-linecap="round"/>
    <path d="M88 140q12 9 24 0" stroke="#f4e6dc" stroke-width="3" fill="none" stroke-linecap="round"/>
  </g>
  <circle cx="100" cy="100" r="98" fill="none" stroke="#c9a227" stroke-width="3"/>
</svg>
